<svg width="381" height="366" fill="none" xmlns="http://www.w3.org/2000/svg"><path d="M90.108 331.265 1.55 177.881 90.108 24.496H267.22l88.557 153.385-88.557 153.384H90.108Z" stroke="#A71680"/><path d="M114.425 340.781 25.868 187.396l88.557-153.385h177.114l88.556 153.385-88.556 153.385H114.425Z" fill="url('#paint0_linear_534_1535')" stroke="#A71680"/><g clip-path="url('#clip0_534_1535')"><path d="M186.875 145.726h-17.343v23.096h-2.199v-23.096h-44.946v-1.711l43.725-52.912h2.687l-43.359 52.546h41.893v-20.407h2.199v20.407h17.343v2.077ZM169.287 186.297v49.49h-1.954V188.13h-28.58l-.855 14.786a223.885 223.885 0 0 1-1.588 17.474c-.733 4.644-1.954 8.432-3.542 11.365-1.71 2.933-4.03 4.399-7.084 4.399-.855 0-1.832-.122-3.175-.489l.366-1.711c.977.245 1.832.367 2.443.367 2.687 0 4.885-1.466 6.351-4.277 1.466-2.811 2.443-6.476 3.054-10.876.61-4.399 1.099-9.898 1.465-16.741l.855-16.13h32.244ZM232.31 210.981h-43.969c0 4.521.977 8.432 2.931 11.975 1.954 3.544 4.641 6.355 8.183 8.31 3.42 1.955 7.329 2.933 11.726 2.933 3.419 0 6.595-.611 9.526-1.955 2.932-1.345 5.374-3.178 7.329-5.744l1.343 1.344c-2.198 2.567-4.885 4.644-8.061 5.988a25.935 25.935 0 0 1-10.137 2.078c-4.764 0-8.916-1.1-12.703-3.178-3.786-2.077-6.717-5.132-8.794-8.92-2.076-3.788-3.175-8.188-3.175-12.953 0-4.766.977-9.043 2.931-12.831 1.954-3.788 4.641-6.721 8.183-8.921 3.42-2.077 7.329-3.177 11.725-3.177 4.275 0 8.184 1.1 11.604 3.177 3.542 2.078 6.229 5.01 8.305 8.676 1.954 3.666 3.053 7.943 3.053 12.587v.611Zm-33.343-20.285c-3.176 1.833-5.619 4.399-7.451 7.698-1.832 3.3-2.931 6.843-3.053 10.876H230.6c-.244-4.033-1.221-7.699-3.175-10.876-1.954-3.177-4.397-5.743-7.573-7.698-3.175-1.833-6.595-2.811-10.381-2.811-3.909 0-7.451.856-10.504 2.811ZM276.89 188.13h-20.03v47.657h-1.954V188.13h-20.153v-1.833h42.015v1.833h.122ZM133.722 258.143c0 4.062-3.124 7.039-7.264 7.039-2.268 0-4.239-.71-5.577-2.093l1.091-1.096c1.202 1.121 2.677 1.644 4.4 1.644 2.999 0 5.292-2.068 5.577-4.896h-7.313v-1.408h7.289c-.36-2.753-2.628-4.659-5.553-4.659-1.723 0-3.198.523-4.4 1.644l-1.091-1.071c1.326-1.383 3.309-2.093 5.577-2.093 4.14 0 7.264 2.927 7.264 6.989ZM142.572 258.903h-3.124v6.13h-1.846v-13.767h1.846v6.042h3.149l4.821-6.042h2.008l-5.392 6.678 5.789 7.089h-2.182l-5.057-6.13h-.012ZM150.901 258.143c0-4.111 2.962-6.989 7.052-6.989 2.318 0 4.277.922 5.367 2.716l-1.375.947c-.942-1.383-2.393-2.044-3.979-2.044-3 0-5.181 2.143-5.181 5.37 0 3.227 2.181 5.37 5.181 5.37 1.586 0 3.049-.623 3.979-2.018l1.375.946c-1.09 1.782-3.049 2.729-5.367 2.729-4.09 0-7.052-2.903-7.052-7.014v-.013ZM179.173 251.266v13.767h-1.847V252.91h-8.589v12.123h-1.847v-13.767h12.296-.013ZM196.414 258.716h-11.465c.211 2.878 2.392 4.784 5.392 4.784 1.661 0 3.148-.598 4.189-1.806l1.041 1.208c-1.227 1.471-3.123 2.255-5.292 2.255-4.276 0-7.189-2.927-7.189-7.014 0-4.086 2.851-6.989 6.705-6.989 3.855 0 6.644 2.853 6.644 6.989 0 .162-.025.361-.025.573Zm-11.465-1.383h9.718c-.236-2.691-2.194-4.585-4.872-4.585-2.677 0-4.61 1.882-4.846 4.585ZM214.399 258.143c0 4.186-2.913 7.014-6.817 7.014-2.194 0-4.066-.946-5.206-2.728v7.675h-1.847v-18.838h1.773v2.716c1.115-1.832 3.024-2.828 5.292-2.828 3.905 0 6.817 2.828 6.817 6.989h-.012Zm-1.847 0c0-3.189-2.218-5.37-5.106-5.37s-5.107 2.168-5.107 5.37 2.181 5.37 5.107 5.37c2.925 0 5.106-2.143 5.106-5.37ZM227.488 252.91h-5.181v12.123h-1.847V252.91h-5.181v-1.644h12.209v1.644ZM230.165 251.266h1.847v10.939l9.147-10.939h1.636v13.767h-1.847v-10.952l-9.11 10.939h-1.661v-13.754h-.012ZM257.508 261.071c0 2.492-2.74 4.111-6.148 4.111-1.959 0-3.954-.573-5.417-1.706l.62-1.383c1.277.971 3.049 1.495 4.71 1.495 2.479 0 4.326-.997 4.326-2.667 0-1.47-1.401-2.329-3.694-2.329h-2.342v-1.358h2.243c2.008 0 3.409-.81 3.409-2.168 0-1.52-1.612-2.355-3.806-2.355-1.4 0-2.912.361-4.375 1.121l-.52-1.445c1.698-.885 3.408-1.283 5.081-1.283 3.124 0 5.528 1.445 5.528 3.688 0 1.445-1.066 2.541-2.652 3.065 1.921.448 3.049 1.594 3.049 3.214h-.012ZM272.741 260.523c0 2.928-2.008 4.585-5.627 4.535l-5.417-.025v-13.767h1.847v4.821l3.904.05c3.434.025 5.293 1.57 5.293 4.398v-.012Zm-1.872 0c0-2.044-1.301-2.978-3.854-3.015l-3.459-.05v6.13l3.459.049c2.528.025 3.854-1.046 3.854-3.114Zm4.165-9.27h1.847v13.767h-1.847v-13.767ZM281.41 246.419v5.376h-.489v-4.888H279.7v-.488h1.71Z" fill="#fff"/><path d="M217.898 166.011c-13.313-6.354-22.595-20.04-22.595-35.804 0-21.752 17.71-39.47 39.572-39.47 21.863 0 39.451 17.718 39.451 39.47 0 21.751-17.71 39.47-39.451 39.47a37.542 37.542 0 0 1-16.977-3.666Z" stroke="#fff" stroke-width="1.417" stroke-miterlimit="10"/><path d="M235.364 131.062c7.352 0 13.313-5.963 13.313-13.32 0-7.356-5.961-13.319-13.313-13.319-7.353 0-13.313 5.963-13.313 13.319 0 7.357 5.96 13.32 13.313 13.32ZM218.02 166.134a16.361 16.361 0 0 1-.732-4.888v-7.699c0-9.776 7.939-17.841 17.832-17.841 9.771 0 17.832 7.943 17.832 17.841v7.699c0 1.466-.122 2.81-.489 4.154" stroke="#fff" stroke-width="1.417" stroke-miterlimit="10"/><path d="m244.769 161.001-5.985-4.032-5.618 4.032v-12.586h11.603v12.586Z" stroke="#fff" stroke-width="1.134" stroke-miterlimit="10" stroke-linecap="round" stroke-linejoin="round"/></g><path stroke="#A71680" d="M121.91 90.381h159v179h-159z"/><defs><linearGradient id="paint0_linear_534_1535" x1="69.24" y1="267.225" x2="357.183" y2="105.068" gradientUnits="userSpaceOnUse"><stop stop-color="#CD5294"/><stop offset=".981" stop-color="#B046C0"/></linearGradient><clipPath id="clip0_534_1535"><path fill="#fff" d="M121.41 89.881h160v180h-160z"/></clipPath></defs></svg>