<svg width="173" height="22" fill="none" xmlns="http://www.w3.org/2000/svg"><path d="M13.861 4.799H8.407v16.906H5.934V4.799H.479V2.51h13.382v2.289ZM19.316 4.356v7.235c1.31.147 1.964.221 2.618.221 2.764 0 4.146-1.255 4.146-3.691v-.517c0-2.14-1.237-3.322-4.291-3.322-1.237 0-1.819 0-2.473.074Zm9.236 3.174v.738c0 3.544-2.036 5.759-6.472 5.759-.8 0-1.673-.074-2.764-.222v7.974h-2.473V2.361c1.455-.073 2.91-.147 4.946-.147 4.727-.074 6.763 1.92 6.763 5.315ZM33.934 8.195v7.825c0 2.51 1.31 3.84 3.855 3.84s3.854-1.33 3.854-3.84V8.195c0-2.437-1.236-3.84-3.854-3.84-2.619 0-3.855 1.33-3.855 3.84Zm10.11.295v7.309c0 3.839-1.819 6.275-6.255 6.275-4.437 0-6.255-2.436-6.255-6.275v-7.31c0-3.838 1.818-6.274 6.255-6.274 4.436-.074 6.254 2.362 6.254 6.275ZM54.661 11.664l6.546 10.04h-2.982l-5.455-8.637h-2.109v8.638h-2.473V2.51h2.473v8.342h2.037l5.236-8.342h2.473l-5.746 9.154ZM72.625 2.658l-.073 2.215c-.946-.148-2.473-.443-3.927-.443-2.618 0-3.71.96-3.71 3.543v8.269c0 2.51 1.019 3.543 3.71 3.543 1.382 0 2.981-.295 3.927-.443l.073 2.215c-1.237.222-2.691.443-4 .443-4.582 0-6.11-1.993-6.11-5.906V8.047c0-3.987 1.673-5.906 6.11-5.906 1.309 0 2.763.295 4 .517ZM86.298 4.799h-7.491v6.053h6.909v2.215h-6.91v6.349h7.492v2.289h-9.891V2.51h9.89v2.289ZM92.77 12.993v6.719c1.528.147 1.819.147 2.837.147 3.055 0 4.29-1.329 4.29-3.248v-.59c0-1.92-1.236-3.028-4.145-3.028h-2.981Zm0-8.563V11h2.837c2.327 0 3.564-1.181 3.564-3.248v-.517c0-1.846-1.164-2.953-4.146-2.953-.654 0-1.454.074-2.254.148Zm8.801 2.436v.664c0 1.92-.8 3.396-2.619 4.208 2.11.443 3.419 2.067 3.419 4.356v.664c0 3.101-2.109 5.316-6.764 5.316-1.745 0-2.473 0-5.236-.148V2.29a90.118 90.118 0 0 1 5.09-.148c4.073 0 6.11 1.92 6.11 4.725ZM107.971 14.986h5.745L110.88 4.8l-2.909 10.188Zm10.254 6.719h-2.618l-1.236-4.43h-6.982l-1.237 4.43h-2.472l5.745-19.121h3.055l5.745 19.12ZM130.007 7.087v.59c0 1.699-1.091 3.397-2.764 3.987 1.964.517 3.273 2.289 3.273 4.43v.812c0 3.1-2.182 5.168-6.764 5.168-1.236 0-2.981-.222-4.072-.443l.072-2.215c1.019.221 2.473.443 3.928.443 3.272 0 4.436-.96 4.436-2.953v-.96c0-2.067-1.164-3.1-4.145-3.1h-2.255v-2.141h2.255c2.472 0 3.636-1.034 3.636-2.953v-.665c0-1.772-1.091-2.731-3.927-2.731-1.382 0-2.909.295-3.928.443l-.072-2.141c1.309-.222 2.763-.443 4-.443 4.363-.074 6.327 1.624 6.327 4.872ZM146.443 21.705h-2.4V7.087l-7.491 14.618h-2.472V2.51h2.472v14.618l7.491-14.618h2.4v19.195ZM163.17 21.705h-2.472v-8.786h-7.491v8.786h-2.4V2.51h2.4v8.195h7.491V2.51h2.472v19.195ZM168.698 3.47h.654c.218 0 .509-.074.509-.37v-.368c0-.37-.218-.37-.509-.37h-.654V3.47Zm-.582 1.772V1.846h1.236c.582 0 1.091.221 1.091.886V3.1c0 .295-.073.516-.291.664l.218 1.477h-.654l-.218-1.255h-.8v1.255h-.582Zm1.091 1.107c1.527 0 2.618-1.255 2.618-2.805 0-1.55-1.091-2.806-2.618-2.806s-2.546 1.255-2.546 2.806c-.072 1.55 1.019 2.805 2.546 2.805Zm0-6.349c2.036 0 3.273 1.55 3.273 3.544 0 1.92-1.31 3.543-3.273 3.543-2.037 0-3.273-1.55-3.273-3.543 0-1.994 1.236-3.544 3.273-3.544Z" fill="#A71680"/></svg>