<svg width="202" height="176" fill="none" xmlns="http://www.w3.org/2000/svg"><path d="M151.063.625H50.455L.392 87.754l50.063 87.129h100.608l50.303-87.13L151.063.626Z" stroke="#A62281" stroke-width=".283" stroke-miterlimit="10"/><path d="M82.707 83.18c46.453 0 86.648 11.553 104.94 28.161l13.96-24.07L151.063.384H50.696L.392 87.513l4.813 8.424C25.664 87.994 52.862 83.18 82.707 83.18Z" fill="#A62281"/><path d="M78.134 138.092c6.78 0 12.275-5.496 12.275-12.275 0-6.78-5.495-12.275-12.275-12.275s-12.275 5.495-12.275 12.275c0 6.779 5.496 12.275 12.275 12.275ZM78.374 103.434v6.017M78.374 142.426v6.017M55.75 126.058h6.258M94.742 126.058h6.257M62.49 141.943l4.332-4.333M89.928 114.264l4.332-4.333M94.26 141.943l-4.332-4.333M66.822 114.264l-4.333-4.333" stroke="#A71680" stroke-miterlimit="10"/><path d="M144.911 58.39c-10.59 0-19.014-8.425-19.014-19.015 0-4.814 1.685-8.906 4.573-12.275-8.184 2.166-14.441 9.627-14.441 18.533 0 10.59 8.424 19.014 19.014 19.014 5.776 0 11.072-2.648 14.441-6.74-1.444.241-2.888.482-4.573.482Z" fill="#fff"/></svg>