<svg width="78" height="28" fill="none" xmlns="http://www.w3.org/2000/svg"><g clip-path="url('#clip0_534_1469')"><path d="M72.207 16.62c0 2.85-2.17 5.625-5.388 5.625-3.143 0-5.387-2.4-5.387-5.625 0-3.525 2.619-5.625 5.387-5.625 3.368 0 5.388 2.775 5.388 5.625Zm-.374-9.975V7.77c-1.646-1.35-3.667-2.025-5.912-2.025-5.612 0-10.102 4.725-10.102 10.875 0 2.7.898 5.325 2.62 7.275 1.87 2.175 4.788 3.525 7.707 3.525 2.17 0 4.04-.675 5.612-2.025v1.125c0 .225.225.45.45.45h4.414c.225 0 .449-.225.449-.45V6.645c0-.225-.224-.45-.449-.45h-4.415c-.15 0-.374.225-.374.45ZM12.942 22.395c-1.272 0-2.17-.375-2.769-1.125-.449-.6-.673-1.35-.673-2.55v-7.725h5.761c.225 0 .45-.225.45-.45v-3.9c0-.225-.225-.45-.45-.45H9.5V.87c0-.225-.225-.45-.45-.45H4.412c-.224 0-.449.225-.449.45v5.325H.67c-.225 0-.45.15-.45.45v3.9c0 .225.225.45.45.45h3.292v7.2c0 2.925.45 4.8 1.497 6.225 1.422 1.95 3.891 3 7.109 3 2.469 0 4.04-.6 4.864-1.275.224-.225.299-.6.15-.825-.15-.15-2.021-3.225-2.021-3.225-.15-.3-.524-.375-.823-.15-.374.15-1.198.45-1.796.45Z" fill="#005C86"/><path d="M26.486 10.32c1.721 0 3.742 1.35 3.966 3.525h-8.306c.3-1.725 2.02-3.525 4.34-3.525Zm0-4.575c-2.844 0-5.463 1.125-7.258 3.225-1.722 2.025-2.694 4.725-2.694 7.575 0 6.375 4.415 10.875 10.7 10.875 2.77 0 5.538-1.05 7.483-2.7.075-.075.225-.15.3-.3.15-.15.15-.45.075-.6-.524-.675-1.647-2.175-2.245-2.925-.15-.225-.45-.225-.674-.075-.15.15-.3.225-.449.375-.898.75-2.394 1.65-4.34 1.65-2.918 0-5.163-1.95-5.463-4.8h13.545c.299 0 .598-.225.673-.6 0-.3.075-.6.075-1.05 0-2.85-.973-5.475-2.694-7.5-1.87-2.025-4.34-3.15-7.034-3.15Z" fill="#005C86"/><path d="M46.316 22.095v-3c0-1.2.224-2.55.748-3.975.524-1.575 1.272-2.925 2.096-3.9l1.272-1.65v6.975l-4.116 5.55Z" fill="#00A997"/><path d="m50.432 9.645 2.694-3.525c.299-.3.673-.45.972-.3.3.15.524.45.524.825v4.425l-4.115 5.55V9.645h-.075Z" fill="#ABD47B"/><path d="M54.622 11.07v2.55c.075 1.275-.15 2.775-.673 4.275-.45 1.35-1.048 2.625-1.796 3.525l-1.647 2.175V16.62l4.116-5.55Z" fill="#146568"/><path d="M50.432 16.545v6.975l-2.694 3.525a.713.713 0 0 1-.898.225.922.922 0 0 1-.524-.825V22.02l4.116-5.475Z" fill="#005C86"/><path d="M45.717 22.095v-3c0-1.2-.224-2.55-.748-3.975-.524-1.575-1.272-2.925-2.095-3.9l-1.272-1.65v6.975l4.115 5.55Z" fill="#00A997"/><path d="M41.602 9.645 38.907 6.12a.713.713 0 0 0-.898-.225c-.3.15-.524.45-.524.825v4.425l4.116 5.55v-7.05Z" fill="#ABD47B"/><path d="M37.486 11.07v2.55c-.075 1.275.15 2.775.674 4.275.449 1.35 1.047 2.625 1.796 3.525l1.646 2.175V16.62l-4.116-5.55Z" fill="#146568"/><path d="M41.602 16.545v6.975l2.693 3.525c.225.3.6.375.898.225.3-.15.524-.45.524-.825V22.02l-4.115-5.475Z" fill="#005C86"/></g><defs><clipPath id="clip0_534_1469"><path fill="#fff" transform="translate(.22 .42)" d="M0 0h77v27H0z"/></clipPath></defs></svg>