<svg width="381" height="365" viewBox="0 0 381 365" fill="none" xmlns="http://www.w3.org/2000/svg">
<path d="M90.1077 331.178L1.55098 177.793L90.1077 24.4083L267.221 24.4083L355.778 177.793L267.221 331.178L90.1077 331.178Z" stroke="#A71680"/>
<path d="M25.291 187.308L114.136 33.4235L291.827 33.4235L380.673 187.308L291.827 341.193L114.136 341.193L25.291 187.308Z" fill="url(#paint0_linear_802_1983)"/>
<g clip-path="url(#clip0_802_1983)">
<path d="M186.875 145.638H169.532V168.734H167.333V145.638H122.387V143.928L166.112 91.0151H168.799L125.44 143.561H167.333V123.154H169.532V143.561H186.875V145.638Z" fill="white"/>
<path d="M169.287 186.208V235.699H167.333V188.041H138.753L137.898 202.828C137.532 209.793 136.921 215.659 136.31 220.302C135.577 224.946 134.356 228.734 132.768 231.667C131.058 234.6 128.738 236.066 125.684 236.066C124.829 236.066 123.852 235.944 122.509 235.577L122.875 233.866C123.852 234.111 124.707 234.233 125.318 234.233C128.005 234.233 130.203 232.767 131.669 229.956C133.135 227.145 134.112 223.479 134.723 219.08C135.333 214.681 135.822 209.182 136.188 202.339L137.043 186.208H169.287Z" fill="white"/>
<path d="M232.31 210.893H188.341C188.341 215.414 189.318 219.324 191.272 222.868C193.226 226.412 195.913 229.223 199.455 231.178C202.875 233.133 206.784 234.111 211.181 234.111C214.6 234.111 217.776 233.5 220.707 232.155C223.639 230.811 226.081 228.978 228.036 226.412L229.379 227.756C227.181 230.322 224.494 232.4 221.318 233.744C218.142 235.088 214.723 235.821 211.181 235.821C206.417 235.821 202.265 234.722 198.478 232.644C194.692 230.567 191.761 227.512 189.684 223.724C187.608 219.935 186.509 215.536 186.509 210.771C186.509 206.005 187.486 201.728 189.44 197.94C191.394 194.151 194.081 191.219 197.623 189.019C201.043 186.942 204.952 185.842 209.348 185.842C213.623 185.842 217.532 186.942 220.952 189.019C224.494 191.096 227.181 194.029 229.257 197.695C231.211 201.361 232.31 205.638 232.31 210.282V210.893ZM198.967 190.608C195.791 192.441 193.348 195.007 191.516 198.306C189.684 201.606 188.585 205.149 188.463 209.182H230.6C230.356 205.149 229.379 201.483 227.425 198.306C225.471 195.129 223.028 192.563 219.852 190.608C216.677 188.775 213.257 187.797 209.471 187.797C205.562 187.797 202.02 188.652 198.967 190.608Z" fill="white"/>
<path d="M276.89 188.041H256.86V235.699H254.906V188.041H234.753V186.208H276.768V188.041H276.89Z" fill="white"/>
<path d="M133.722 258.055C133.722 262.117 130.598 265.095 126.458 265.095C124.19 265.095 122.219 264.385 120.881 263.002L121.972 261.905C123.174 263.027 124.649 263.55 126.372 263.55C129.371 263.55 131.664 261.482 131.949 258.653H124.636V257.246H131.925C131.565 254.492 129.297 252.586 126.372 252.586C124.649 252.586 123.174 253.109 121.972 254.231L120.881 253.159C122.207 251.776 124.19 251.066 126.458 251.066C130.598 251.066 133.722 253.994 133.722 258.055Z" fill="white"/>
<path d="M142.572 258.816H139.448V264.945H137.602V251.178H139.448V257.221H142.597L147.418 251.178H149.426L144.034 257.856L149.823 264.945H147.641L142.584 258.816H142.572Z" fill="white"/>
<path d="M150.901 258.055C150.901 253.944 153.863 251.066 157.953 251.066C160.271 251.066 162.23 251.988 163.32 253.782L161.945 254.729C161.003 253.346 159.552 252.686 157.966 252.686C154.966 252.686 152.785 254.829 152.785 258.055C152.785 261.282 154.966 263.425 157.966 263.425C159.552 263.425 161.015 262.802 161.945 261.407L163.32 262.354C162.23 264.135 160.271 265.082 157.953 265.082C153.863 265.082 150.901 262.179 150.901 258.068V258.055Z" fill="white"/>
<path d="M179.173 251.178V264.945H177.326V252.823H168.737V264.945H166.89V251.178H179.186H179.173Z" fill="white"/>
<path d="M196.414 258.629H184.949C185.16 261.507 187.341 263.413 190.341 263.413C192.002 263.413 193.489 262.815 194.53 261.606L195.571 262.815C194.344 264.285 192.448 265.07 190.279 265.07C186.003 265.07 183.09 262.142 183.09 258.055C183.09 253.969 185.941 251.066 189.795 251.066C193.65 251.066 196.439 253.919 196.439 258.055C196.439 258.217 196.414 258.417 196.414 258.629ZM184.949 257.246H194.667C194.431 254.554 192.473 252.661 189.795 252.661C187.118 252.661 185.185 254.542 184.949 257.246Z" fill="white"/>
<path d="M214.399 258.055C214.399 262.242 211.486 265.07 207.582 265.07C205.388 265.07 203.516 264.123 202.376 262.341V270.016H200.529V251.178H202.302V253.894C203.417 252.063 205.326 251.066 207.594 251.066C211.499 251.066 214.411 253.894 214.411 258.055H214.399ZM212.552 258.055C212.552 254.866 210.334 252.686 207.446 252.686C204.558 252.686 202.339 254.853 202.339 258.055C202.339 261.257 204.52 263.425 207.446 263.425C210.371 263.425 212.552 261.282 212.552 258.055Z" fill="white"/>
<path d="M227.488 252.823H222.307V264.945H220.46V252.823H215.279V251.178H227.488V252.823Z" fill="white"/>
<path d="M230.165 251.178H232.012V262.117L241.159 251.178H242.795V264.945H240.948V253.994L231.838 264.933H230.177V251.178H230.165Z" fill="white"/>
<path d="M257.508 260.983C257.508 263.475 254.768 265.095 251.36 265.095C249.401 265.095 247.406 264.522 245.943 263.388L246.563 262.005C247.84 262.977 249.612 263.5 251.273 263.5C253.752 263.5 255.599 262.503 255.599 260.834C255.599 259.364 254.198 258.504 251.905 258.504H249.563V257.146H251.806C253.814 257.146 255.215 256.336 255.215 254.978C255.215 253.458 253.603 252.623 251.409 252.623C250.009 252.623 248.497 252.985 247.034 253.745L246.514 252.299C248.212 251.415 249.922 251.016 251.595 251.016C254.719 251.016 257.123 252.461 257.123 254.704C257.123 256.149 256.057 257.246 254.471 257.769C256.392 258.217 257.52 259.364 257.52 260.983H257.508Z" fill="white"/>
<path d="M272.741 260.435C272.741 263.363 270.733 265.02 267.114 264.97L261.697 264.945V251.178H263.544V256L267.448 256.049C270.882 256.074 272.741 257.619 272.741 260.447V260.435ZM270.869 260.435C270.869 258.392 269.568 257.457 267.015 257.42L263.556 257.37V263.5L267.015 263.55C269.543 263.575 270.869 262.503 270.869 260.435ZM275.034 251.166H276.881V264.933H275.034V251.178V251.166Z" fill="white"/>
<path d="M281.41 246.331V251.707H280.921V246.819H279.7V246.331H281.41Z" fill="white"/>
<path d="M217.898 165.923C204.585 159.569 195.303 145.883 195.303 130.119C195.303 108.367 213.013 90.6484 234.875 90.6484C256.738 90.6484 274.326 108.367 274.326 130.119C274.326 151.87 256.616 169.589 234.875 169.589C228.768 169.712 223.028 168.367 217.898 165.923Z" stroke="white" stroke-width="1.4173" stroke-miterlimit="10"/>
<path d="M235.364 130.974C242.716 130.974 248.677 125.011 248.677 117.655C248.677 110.298 242.716 104.335 235.364 104.335C228.011 104.335 222.051 110.298 222.051 117.655C222.051 125.011 228.011 130.974 235.364 130.974Z" stroke="white" stroke-width="1.4173" stroke-miterlimit="10"/>
<path d="M218.02 166.045C217.532 164.457 217.288 162.868 217.288 161.157V153.459C217.288 143.683 225.227 135.618 235.12 135.618C244.891 135.618 252.952 143.561 252.952 153.459V161.157C252.952 162.624 252.83 163.968 252.463 165.312" stroke="white" stroke-width="1.4173" stroke-miterlimit="10"/>
<path d="M244.769 160.913L238.784 156.881L233.166 160.913V148.327H244.769V160.913Z" stroke="white" stroke-width="1.1339" stroke-miterlimit="10" stroke-linecap="round" stroke-linejoin="round"/>
</g>
<defs>
<linearGradient id="paint0_linear_802_1983" x1="69.2401" y1="267.137" x2="357.183" y2="104.98" gradientUnits="userSpaceOnUse">
<stop stop-color="#CD5294"/>
<stop offset="0.98081" stop-color="#B046C0"/>
</linearGradient>
<clipPath id="clip0_802_1983">
<rect width="160" height="180" fill="white" transform="translate(121.41 89.793)"/>
</clipPath>
</defs>
</svg>
