<svg width="78" height="28" viewBox="0 0 78 28" fill="none" xmlns="http://www.w3.org/2000/svg">
<g clip-path="url(#clip0_534_1469)">
<path d="M72.2071 16.6204C72.2071 19.4704 70.037 22.2454 66.8193 22.2454C63.6765 22.2454 61.4316 19.8454 61.4316 16.6204C61.4316 13.0954 64.0506 10.9954 66.8193 10.9954C70.1867 10.9954 72.2071 13.7704 72.2071 16.6204ZM71.8329 6.64536V7.77036C70.1867 6.42036 68.1663 5.74536 65.9214 5.74536C60.3091 5.74536 55.8193 10.4704 55.8193 16.6204C55.8193 19.3204 56.7173 21.9454 58.4384 23.8954C60.3091 26.0704 63.2275 27.4204 66.1459 27.4204C68.3159 27.4204 70.1867 26.7454 71.7581 25.3954V26.5204C71.7581 26.7454 71.9826 26.9704 72.2071 26.9704H76.6221C76.8465 26.9704 77.071 26.7454 77.071 26.5204V6.64536C77.071 6.42036 76.8465 6.19536 76.6221 6.19536H72.2071C72.0574 6.19536 71.8329 6.42036 71.8329 6.64536Z" fill="#005C86"/>
<path d="M12.9418 22.3954C11.6697 22.3954 10.7717 22.0204 10.1731 21.2704C9.7241 20.6704 9.49961 19.9204 9.49961 18.7204V10.9954H15.2615C15.486 10.9954 15.7105 10.7704 15.7105 10.5454V6.64541C15.7105 6.42041 15.486 6.19541 15.2615 6.19541H9.49961V0.87041C9.49961 0.64541 9.27512 0.42041 9.05064 0.42041H4.41118C4.18669 0.42041 3.9622 0.64541 3.9622 0.87041V6.19541H0.669683C0.445193 6.19541 0.220703 6.34541 0.220703 6.64541V10.5454C0.220703 10.7704 0.445193 10.9954 0.669683 10.9954H3.9622V18.1954C3.9622 21.1204 4.41118 22.9954 5.4588 24.4204C6.88057 26.3704 9.34995 27.4204 12.5676 27.4204C15.037 27.4204 16.6085 26.8204 17.4316 26.1454C17.6561 25.9204 17.7309 25.5454 17.5812 25.3204C17.4316 25.1704 15.5608 22.0954 15.5608 22.0954C15.4112 21.7954 15.037 21.7204 14.7377 21.9454C14.3636 22.0954 13.5404 22.3954 12.9418 22.3954Z" fill="#005C86"/>
<path d="M26.4861 10.3204C28.2072 10.3204 30.2276 11.6704 30.4521 13.8454H22.1459C22.4453 12.1204 24.1663 10.3204 26.4861 10.3204ZM26.4861 5.74536C23.6425 5.74536 21.0235 6.87036 19.2276 8.97036C17.5065 10.9954 16.5337 13.6954 16.5337 16.5454C16.5337 22.9204 20.9487 27.4204 27.2344 27.4204C30.0031 27.4204 32.7718 26.3704 34.7174 24.7204C34.7922 24.6454 34.9419 24.5704 35.0167 24.4204C35.1663 24.2704 35.1663 23.9704 35.0915 23.8204C34.5677 23.1454 33.4453 21.6454 32.8466 20.8954C32.697 20.6704 32.3976 20.6704 32.1731 20.8204C32.0235 20.9704 31.8738 21.0454 31.7242 21.1954C30.8262 21.9454 29.3296 22.8454 27.384 22.8454C24.4657 22.8454 22.2208 20.8954 21.9214 18.0454H35.4657C35.765 18.0454 36.0643 17.8204 36.1391 17.4454C36.1391 17.1454 36.214 16.8454 36.214 16.3954C36.214 13.5454 35.2412 10.9204 33.5201 8.89536C31.6493 6.87036 29.1799 5.74536 26.4861 5.74536Z" fill="#005C86"/>
<path d="M46.3159 22.0953V19.0953C46.3159 17.8953 46.5404 16.5453 47.0642 15.1203C47.588 13.5453 48.3363 12.1953 49.1595 11.2203L50.4316 9.57031V16.5453L46.3159 22.0953Z" fill="#00A997"/>
<path d="M50.4316 9.64532L53.1255 6.12032C53.4248 5.82032 53.799 5.67032 54.0983 5.82032C54.3976 5.97032 54.6221 6.27032 54.6221 6.64532V11.0703L50.5065 16.6203V9.64532H50.4316Z" fill="#ABD47B"/>
<path d="M54.622 11.0703V13.6203C54.6968 14.8953 54.4723 16.3953 53.9485 17.8953C53.4995 19.2453 52.9009 20.5203 52.1526 21.4203L50.5063 23.5953V16.6203L54.622 11.0703Z" fill="#146568"/>
<path d="M50.4316 16.5454V23.5204L47.7377 27.0454C47.5132 27.3454 47.139 27.4204 46.8397 27.2704C46.5404 27.1204 46.3159 26.8204 46.3159 26.4454V22.0204L50.4316 16.5454Z" fill="#005C86"/>
<path d="M45.7172 22.0953V19.0953C45.7172 17.8953 45.4927 16.5453 44.9689 15.1203C44.4451 13.5453 43.6968 12.1953 42.8737 11.2203L41.6016 9.57031V16.5453L45.7172 22.0953Z" fill="#00A997"/>
<path d="M41.6015 9.64531L38.9076 6.12031C38.6831 5.82031 38.309 5.74531 38.0096 5.89531C37.7103 6.04531 37.4858 6.34531 37.4858 6.72031V11.1453L41.6015 16.6953V9.64531Z" fill="#ABD47B"/>
<path d="M37.4862 11.0703V13.6203C37.4114 14.8953 37.6359 16.3953 38.1597 17.8953C38.6086 19.2453 39.2073 20.5203 39.9556 21.4203L41.6018 23.5953V16.6203L37.4862 11.0703Z" fill="#146568"/>
<path d="M41.6016 16.5454V23.5204L44.2954 27.0454C44.5199 27.3454 44.8941 27.4204 45.1934 27.2704C45.4927 27.1204 45.7172 26.8204 45.7172 26.4454V22.0204L41.6016 16.5454Z" fill="#005C86"/>
</g>
<defs>
<clipPath id="clip0_534_1469">
<rect width="77" height="27" fill="white" transform="translate(0.220703 0.42041)"/>
</clipPath>
</defs>
</svg>
