<svg width="381" height="366" viewBox="0 0 381 366" fill="none" xmlns="http://www.w3.org/2000/svg">
<path d="M90.1077 331.265L1.55098 177.881L90.1077 24.496L267.221 24.496L355.778 177.881L267.221 331.265L90.1077 331.265Z" stroke="#A71680"/>
<path d="M114.425 340.781L25.8684 187.396L114.425 34.0113L291.539 34.0113L380.095 187.396L291.539 340.781L114.425 340.781Z" fill="url(#paint0_linear_534_1535)" stroke="#A71680"/>
<g clip-path="url(#clip0_534_1535)">
<path d="M186.875 145.726H169.532V168.822H167.333V145.726H122.387V144.015L166.112 91.103H168.799L125.44 143.649H167.333V123.242H169.532V143.649H186.875V145.726Z" fill="white"/>
<path d="M169.287 186.297V235.787H167.333V188.13H138.753L137.898 202.916C137.532 209.881 136.921 215.747 136.31 220.39C135.577 225.034 134.356 228.822 132.768 231.755C131.058 234.688 128.738 236.154 125.684 236.154C124.829 236.154 123.852 236.032 122.509 235.665L122.875 233.954C123.852 234.199 124.707 234.321 125.318 234.321C128.005 234.321 130.203 232.855 131.669 230.044C133.135 227.233 134.112 223.568 134.723 219.168C135.333 214.769 135.822 209.27 136.188 202.427L137.043 186.297H169.287Z" fill="white"/>
<path d="M232.31 210.981H188.341C188.341 215.502 189.318 219.413 191.272 222.956C193.226 226.5 195.913 229.311 199.455 231.266C202.875 233.221 206.784 234.199 211.181 234.199C214.6 234.199 217.776 233.588 220.707 232.244C223.639 230.899 226.081 229.066 228.036 226.5L229.379 227.844C227.181 230.411 224.494 232.488 221.318 233.832C218.142 235.176 214.723 235.91 211.181 235.91C206.417 235.91 202.265 234.81 198.478 232.732C194.692 230.655 191.761 227.6 189.684 223.812C187.608 220.024 186.509 215.624 186.509 210.859C186.509 206.093 187.486 201.816 189.44 198.028C191.394 194.24 194.081 191.307 197.623 189.107C201.043 187.03 204.952 185.93 209.348 185.93C213.623 185.93 217.532 187.03 220.952 189.107C224.494 191.185 227.181 194.117 229.257 197.783C231.211 201.449 232.31 205.726 232.31 210.37V210.981ZM198.967 190.696C195.791 192.529 193.348 195.095 191.516 198.394C189.684 201.694 188.585 205.237 188.463 209.27H230.6C230.356 205.237 229.379 201.571 227.425 198.394C225.471 195.217 223.028 192.651 219.852 190.696C216.677 188.863 213.257 187.885 209.471 187.885C205.562 187.885 202.02 188.741 198.967 190.696Z" fill="white"/>
<path d="M276.89 188.13H256.86V235.787H254.906V188.13H234.753V186.297H276.768V188.13H276.89Z" fill="white"/>
<path d="M133.722 258.143C133.722 262.205 130.598 265.182 126.458 265.182C124.19 265.182 122.219 264.472 120.881 263.089L121.972 261.993C123.174 263.114 124.649 263.637 126.372 263.637C129.371 263.637 131.664 261.569 131.949 258.741H124.636V257.333H131.925C131.565 254.58 129.297 252.674 126.372 252.674C124.649 252.674 123.174 253.197 121.972 254.318L120.881 253.247C122.207 251.864 124.19 251.154 126.458 251.154C130.598 251.154 133.722 254.081 133.722 258.143Z" fill="white"/>
<path d="M142.572 258.903H139.448V265.033H137.602V251.266H139.448V257.308H142.597L147.418 251.266H149.426L144.034 257.944L149.823 265.033H147.641L142.584 258.903H142.572Z" fill="white"/>
<path d="M150.901 258.143C150.901 254.032 153.863 251.154 157.953 251.154C160.271 251.154 162.23 252.076 163.32 253.87L161.945 254.817C161.003 253.434 159.552 252.773 157.966 252.773C154.966 252.773 152.785 254.916 152.785 258.143C152.785 261.37 154.966 263.513 157.966 263.513C159.552 263.513 161.015 262.89 161.945 261.495L163.32 262.441C162.23 264.223 160.271 265.17 157.953 265.17C153.863 265.17 150.901 262.267 150.901 258.156V258.143Z" fill="white"/>
<path d="M179.173 251.266V265.033H177.326V252.91H168.737V265.033H166.89V251.266H179.186H179.173Z" fill="white"/>
<path d="M196.414 258.716H184.949C185.16 261.594 187.341 263.5 190.341 263.5C192.002 263.5 193.489 262.902 194.53 261.694L195.571 262.902C194.344 264.373 192.448 265.157 190.279 265.157C186.003 265.157 183.09 262.23 183.09 258.143C183.09 254.057 185.941 251.154 189.795 251.154C193.65 251.154 196.439 254.007 196.439 258.143C196.439 258.305 196.414 258.504 196.414 258.716ZM184.949 257.333H194.667C194.431 254.642 192.473 252.748 189.795 252.748C187.118 252.748 185.185 254.63 184.949 257.333Z" fill="white"/>
<path d="M214.399 258.143C214.399 262.329 211.486 265.157 207.582 265.157C205.388 265.157 203.516 264.211 202.376 262.429V270.104H200.529V251.266H202.302V253.982C203.417 252.15 205.326 251.154 207.594 251.154C211.499 251.154 214.411 253.982 214.411 258.143H214.399ZM212.552 258.143C212.552 254.954 210.334 252.773 207.446 252.773C204.558 252.773 202.339 254.941 202.339 258.143C202.339 261.345 204.52 263.513 207.446 263.513C210.371 263.513 212.552 261.37 212.552 258.143Z" fill="white"/>
<path d="M227.488 252.91H222.307V265.033H220.46V252.91H215.279V251.266H227.488V252.91Z" fill="white"/>
<path d="M230.165 251.266H232.012V262.205L241.159 251.266H242.795V265.033H240.948V254.081L231.838 265.02H230.177V251.266H230.165Z" fill="white"/>
<path d="M257.508 261.071C257.508 263.563 254.768 265.182 251.36 265.182C249.401 265.182 247.406 264.609 245.943 263.476L246.563 262.093C247.84 263.064 249.612 263.588 251.273 263.588C253.752 263.588 255.599 262.591 255.599 260.921C255.599 259.451 254.198 258.592 251.905 258.592H249.563V257.234H251.806C253.814 257.234 255.215 256.424 255.215 255.066C255.215 253.546 253.603 252.711 251.409 252.711C250.009 252.711 248.497 253.072 247.034 253.832L246.514 252.387C248.212 251.502 249.922 251.104 251.595 251.104C254.719 251.104 257.123 252.549 257.123 254.792C257.123 256.237 256.057 257.333 254.471 257.857C256.392 258.305 257.52 259.451 257.52 261.071H257.508Z" fill="white"/>
<path d="M272.741 260.523C272.741 263.451 270.733 265.108 267.114 265.058L261.697 265.033V251.266H263.544V256.087L267.448 256.137C270.882 256.162 272.741 257.707 272.741 260.535V260.523ZM270.869 260.523C270.869 258.479 269.568 257.545 267.015 257.508L263.556 257.458V263.588L267.015 263.637C269.543 263.662 270.869 262.591 270.869 260.523ZM275.034 251.253H276.881V265.02H275.034V251.266V251.253Z" fill="white"/>
<path d="M281.41 246.419V251.795H280.921V246.907H279.7V246.419H281.41Z" fill="white"/>
<path d="M217.898 166.011C204.585 159.657 195.303 145.971 195.303 130.207C195.303 108.455 213.013 90.7363 234.875 90.7363C256.738 90.7363 274.326 108.455 274.326 130.207C274.326 151.958 256.616 169.677 234.875 169.677C228.768 169.799 223.028 168.455 217.898 166.011Z" stroke="white" stroke-width="1.4173" stroke-miterlimit="10"/>
<path d="M235.364 131.062C242.716 131.062 248.677 125.099 248.677 117.742C248.677 110.386 242.716 104.423 235.364 104.423C228.011 104.423 222.051 110.386 222.051 117.742C222.051 125.099 228.011 131.062 235.364 131.062Z" stroke="white" stroke-width="1.4173" stroke-miterlimit="10"/>
<path d="M218.02 166.134C217.532 164.545 217.288 162.956 217.288 161.246V153.547C217.288 143.771 225.227 135.706 235.12 135.706C244.891 135.706 252.952 143.649 252.952 153.547V161.246C252.952 162.712 252.83 164.056 252.463 165.4" stroke="white" stroke-width="1.4173" stroke-miterlimit="10"/>
<path d="M244.769 161.001L238.784 156.969L233.166 161.001V148.415H244.769V161.001Z" stroke="white" stroke-width="1.1339" stroke-miterlimit="10" stroke-linecap="round" stroke-linejoin="round"/>
</g>
<rect x="121.91" y="90.3809" width="159" height="179" stroke="#A71680"/>
<defs>
<linearGradient id="paint0_linear_534_1535" x1="69.2401" y1="267.225" x2="357.183" y2="105.068" gradientUnits="userSpaceOnUse">
<stop stop-color="#CD5294"/>
<stop offset="0.98081" stop-color="#B046C0"/>
</linearGradient>
<clipPath id="clip0_534_1535">
<rect x="121.41" y="89.8809" width="160" height="180" fill="white"/>
</clipPath>
</defs>
</svg>
