<svg width="173" height="22" viewBox="0 0 173 22" fill="none" xmlns="http://www.w3.org/2000/svg">
<path d="M13.8613 4.7986H8.40676V21.7046H5.93404V4.7986H0.479492V2.51001H13.8613V4.7986Z" fill="#A71680"/>
<path d="M19.316 4.35569V11.5906C20.6251 11.7382 21.2796 11.8121 21.9342 11.8121C24.6978 11.8121 26.0796 10.557 26.0796 8.12079V7.60401C26.0796 5.46307 24.8433 4.28186 21.7887 4.28186C20.5524 4.28186 19.9705 4.28186 19.316 4.35569ZM28.5524 7.53019V8.26844C28.5524 11.8121 26.516 14.0268 22.0796 14.0268C21.2796 14.0268 20.4069 13.953 19.316 13.8054V21.7785H16.8433V2.3624C18.2978 2.28858 19.7524 2.21475 21.7887 2.21475C26.516 2.14092 28.5524 4.13421 28.5524 7.53019Z" fill="#A71680"/>
<path d="M33.9342 8.19463V16.0201C33.9342 18.5302 35.2433 19.8591 37.7887 19.8591C40.3342 19.8591 41.6433 18.5302 41.6433 16.0201V8.19463C41.6433 5.75839 40.4069 4.35571 37.7887 4.35571C35.1705 4.35571 33.9342 5.68457 33.9342 8.19463ZM44.0433 8.48993V15.7987C44.0433 19.6376 42.2251 22.0738 37.7887 22.0738C33.3524 22.0738 31.5342 19.6376 31.5342 15.7987V8.48993C31.5342 4.65101 33.3524 2.21477 37.7887 2.21477C42.2251 2.14094 44.0433 4.57718 44.0433 8.48993Z" fill="#A71680"/>
<path d="M54.6612 11.6644L61.2067 21.7046H58.2248L52.7703 13.0671H50.6612V21.7046H48.1885V2.51001H50.6612V10.8523H52.6976L57.9339 2.51001H60.4067L54.6612 11.6644Z" fill="#A71680"/>
<path d="M72.6247 2.65777L72.552 4.87253C71.6065 4.72488 70.0793 4.42958 68.6247 4.42958C66.0065 4.42958 64.9156 5.38931 64.9156 7.97321V16.2417C64.9156 18.7517 65.9338 19.7853 68.6247 19.7853C70.0065 19.7853 71.6065 19.49 72.552 19.3423L72.6247 21.5571C71.3883 21.7786 69.9338 22.0001 68.6247 22.0001C64.0429 22.0001 62.5156 20.0068 62.5156 16.094V8.04703C62.5156 4.06045 64.1883 2.14099 68.6247 2.14099C69.9338 2.14099 71.3883 2.43629 72.6247 2.65777Z" fill="#A71680"/>
<path d="M86.2976 4.7986H78.8067V10.8523H85.7158V13.0671H78.8067V19.416H86.2976V21.7046H76.4067V2.51001H86.2976V4.7986Z" fill="#A71680"/>
<path d="M92.7706 12.9933V19.7115C94.2979 19.8591 94.5888 19.8591 95.607 19.8591C98.6615 19.8591 99.8979 18.5303 99.8979 16.6108V16.0202C99.8979 14.1007 98.6615 12.9933 95.7524 12.9933H92.7706ZM92.7706 4.42958V11.0001H95.607C97.9342 11.0001 99.1706 9.81884 99.1706 7.75173V7.23495C99.1706 5.38931 98.007 4.28193 95.0252 4.28193C94.3706 4.28193 93.5706 4.35576 92.7706 4.42958ZM101.571 6.86582V7.53025C101.571 9.44972 100.771 10.9262 98.9524 11.7383C101.062 12.1813 102.371 13.8054 102.371 16.094V16.7584C102.371 19.8591 100.262 22.0739 95.607 22.0739C93.8615 22.0739 93.1342 22.0739 90.3706 21.9262V2.28864C91.6797 2.21482 93.4252 2.14099 95.4615 2.14099C99.5342 2.14099 101.571 4.06045 101.571 6.86582Z" fill="#A71680"/>
<path d="M107.971 14.9865H113.716L110.88 4.79863L107.971 14.9865ZM118.225 21.7047H115.607L114.371 17.2751H107.389L106.152 21.7047H103.68L109.425 2.58386H112.48L118.225 21.7047Z" fill="#A71680"/>
<path d="M130.007 7.08719V7.6778C130.007 9.37579 128.916 11.0738 127.243 11.6644C129.207 12.1812 130.516 13.953 130.516 16.0939V16.906C130.516 20.0067 128.334 22.0738 123.752 22.0738C122.516 22.0738 120.771 21.8523 119.68 21.6308L119.752 19.4161C120.771 19.6375 122.225 19.859 123.68 19.859C126.952 19.859 128.116 18.8993 128.116 16.906V15.9463C128.116 13.8791 126.952 12.8456 123.971 12.8456H121.716V10.7046H123.971C126.443 10.7046 127.607 9.67109 127.607 7.75162V7.08719C127.607 5.31538 126.516 4.35565 123.68 4.35565C122.298 4.35565 120.771 4.65095 119.752 4.7986L119.68 2.65766C120.989 2.43619 122.443 2.21471 123.68 2.21471C128.043 2.14089 130.007 3.83887 130.007 7.08719Z" fill="#A71680"/>
<path d="M146.443 21.7046H144.043V7.08719L136.552 21.7046H134.08V2.51001H136.552V17.1275L144.043 2.51001H146.443V21.7046Z" fill="#A71680"/>
<path d="M163.17 21.7046H160.698V12.9194H153.207V21.7046H150.807V2.51001H153.207V10.7046H160.698V2.51001H163.17V21.7046Z" fill="#A71680"/>
<path d="M168.698 3.4698H169.352C169.57 3.4698 169.861 3.39597 169.861 3.10067V2.73154C169.861 2.36242 169.643 2.36242 169.352 2.36242H168.698V3.4698ZM168.116 5.24161V1.84564H169.352C169.934 1.84564 170.443 2.06711 170.443 2.73154V3.10067C170.443 3.39597 170.37 3.61745 170.152 3.7651L170.37 5.24161H169.716L169.498 3.98658H168.698V5.24161H168.116ZM169.207 6.34899C170.734 6.34899 171.825 5.09396 171.825 3.54362C171.825 1.99329 170.734 0.738255 169.207 0.738255C167.68 0.738255 166.661 1.99329 166.661 3.54362C166.589 5.09396 167.68 6.34899 169.207 6.34899ZM169.207 0C171.243 0 172.48 1.55034 172.48 3.54362C172.48 5.46309 171.17 7.08725 169.207 7.08725C167.17 7.08725 165.934 5.53691 165.934 3.54362C165.934 1.55034 167.17 0 169.207 0Z" fill="#A71680"/>
</svg>
