<svg width="222" height="189" viewBox="0 0 222 189" fill="none" xmlns="http://www.w3.org/2000/svg">
<path d="M1.49548 94.3196L58.3289 0.533945L167.991 0.632596L220.81 94.4993L163.976 188.285L54.3143 188.186L1.49548 94.3196Z" stroke="#A71680"/>
<path d="M110.64 84.2487C118.64 84.2487 124.706 86.0154 128.84 89.5487C133.04 93.0154 135.14 97.7487 135.14 103.749C135.14 109.682 133.106 114.415 129.04 117.949C125.04 121.482 119.373 123.249 112.04 123.249C106.84 123.249 102.073 122.349 97.7396 120.549C93.4063 118.682 90.173 116.282 88.0396 113.349L89.3396 112.049C91.3396 114.782 94.373 117.015 98.4396 118.749C102.506 120.482 107.04 121.349 112.04 121.349C118.84 121.349 124.04 119.782 127.64 116.649C131.306 113.515 133.14 109.215 133.14 103.749C133.14 98.2154 131.273 93.9154 127.54 90.8487C123.806 87.7154 118.206 86.1487 110.74 86.1487H107.14V84.6487L129.84 54.8487H90.2396V52.9487H132.54V54.4487L109.84 84.2487H110.64Z" fill="#A71680"/>
<path d="M98.4963 155.146V162.66H96.1503V157.322H75.3763L75.3423 162.66H72.9963L73.0303 155.146H74.2203C75.7843 155.055 76.8723 153.82 77.4843 151.44C78.0963 149.037 78.4703 145.637 78.6063 141.24L78.8783 133.522H94.9263V155.146H98.4963ZM80.8503 141.478C80.737 145.105 80.4536 148.097 80.0003 150.454C79.5696 152.789 78.833 154.353 77.7903 155.146H92.4443V135.698H81.0543L80.8503 141.478ZM123.518 133.522V157.322H121.036V146.34H106.144V157.322H103.628V133.522H106.144V144.13H121.036V133.522H123.518ZM148.416 133.522V157.322H145.934V150.114H138.828C138.511 150.114 138.058 150.091 137.468 150.046L132.47 157.322H129.784L135.19 149.604C133.445 149.083 132.108 148.165 131.178 146.85C130.249 145.513 129.784 143.881 129.784 141.954C129.784 139.279 130.623 137.205 132.3 135.732C134 134.259 136.29 133.522 139.168 133.522H148.416ZM132.3 141.886C132.3 143.835 132.867 145.343 134 146.408C135.156 147.451 136.834 147.972 139.032 147.972H145.934V135.698H139.27C137.049 135.698 135.326 136.231 134.102 137.296C132.901 138.339 132.3 139.869 132.3 141.886Z" fill="#A71680"/>
</svg>
