<svg width="221" height="189" viewBox="0 0 221 189" fill="none" xmlns="http://www.w3.org/2000/svg">
<path d="M0.850953 94.3196L57.6844 0.533945L167.347 0.632596L220.165 94.4993L163.332 188.285L53.6697 188.186L0.850953 94.3196Z" stroke="#A71680"/>
<path d="M134.544 104.753H118.944V125.553H116.944V104.753H76.4438V103.253L115.844 55.553H118.244L79.1438 102.853H116.944V84.553H118.944V102.853H134.544V104.753Z" fill="#A71680"/>
<path d="M97.8518 155.146V162.66H95.5058V157.322H74.7318L74.6978 162.66H72.3518L72.3858 155.146H73.5758C75.1398 155.055 76.2278 153.82 76.8398 151.44C77.4518 149.037 77.8258 145.637 77.9618 141.24L78.2338 133.522H94.2818V155.146H97.8518ZM80.2058 141.478C80.0925 145.105 79.8091 148.097 79.3558 150.454C78.9251 152.789 78.1885 154.353 77.1458 155.146H91.7998V135.698H80.4098L80.2058 141.478ZM122.874 133.522V157.322H120.392V146.34H105.5V157.322H102.984V133.522H105.5V144.13H120.392V133.522H122.874ZM147.772 133.522V157.322H145.29V150.114H138.184C137.866 150.114 137.413 150.091 136.824 150.046L131.826 157.322H129.14L134.546 149.604C132.8 149.083 131.463 148.165 130.534 146.85C129.604 145.513 129.14 143.881 129.14 141.954C129.14 139.279 129.978 137.205 131.656 135.732C133.356 134.259 135.645 133.522 138.524 133.522H147.772ZM131.656 141.886C131.656 143.835 132.222 145.343 133.356 146.408C134.512 147.451 136.189 147.972 138.388 147.972H145.29V135.698H138.626C136.404 135.698 134.682 136.231 133.458 137.296C132.256 138.339 131.656 139.869 131.656 141.886Z" fill="#A71680"/>
</svg>
