<svg width="222" height="189" viewBox="0 0 222 189" fill="none" xmlns="http://www.w3.org/2000/svg">
<path d="M1.33289 94.3196L58.1663 0.533945L167.828 0.632596L220.647 94.4993L163.814 188.285L54.1517 188.186L1.33289 94.3196Z" stroke="#A71680"/>
<path d="M98.8854 173.529H160.469" stroke="#A71680" stroke-width="1.3" stroke-linecap="round" stroke-linejoin="round"/>
<path d="M156.861 75.0208C156.861 102.693 134.428 125.127 106.755 125.127C79.0822 125.127 56.649 102.693 56.649 75.0208C56.649 47.3481 79.0822 24.9149 106.755 24.9149C134.428 24.9149 156.861 47.3481 156.861 75.0208Z" stroke="#A71680" stroke-width="1.3"/>
<path d="M154.675 120.01C158.68 119.813 168.058 119.481 168.058 125.866C168.058 145.241 154.675 145.14 154.675 145.14" stroke="#A71680" stroke-width="1.3" stroke-linecap="round" stroke-linejoin="round"/>
<path d="M105.653 143.075V113.299H154.379V143.075C154.379 151.196 154.379 165.746 142.536 165.746H118.173C104.212 165.746 105.653 143.075 105.653 143.075Z" fill="white" stroke="#A71680" stroke-width="1.3" stroke-linecap="round" stroke-linejoin="round"/>
<path d="M112.154 146.932C111.872 150.993 114.388 159.114 126.704 159.114" stroke="#A71680" stroke-width="1.3" stroke-linecap="round" stroke-linejoin="round"/>
<path d="M107.345 35.5532V72.4358" stroke="#A71680" stroke-width="1.3" stroke-linecap="round" stroke-linejoin="round"/>
<path d="M96.5181 97.6445L106.838 77.342" stroke="#A71680" stroke-width="1.3" stroke-linecap="round" stroke-linejoin="round"/>
<circle cx="107.345" cy="74.8977" r="3.46826" fill="#A71680"/>
</svg>
