<svg width="221" height="190" viewBox="0 0 221 190" fill="none" xmlns="http://www.w3.org/2000/svg">
<path d="M0.583375 94.6851L57.4168 0.899423L167.079 0.998074L219.898 94.8648L163.064 188.65L53.4022 188.552L0.583375 94.6851Z" stroke="#A71680"/>
<path fill-rule="evenodd" clip-rule="evenodd" d="M115.111 56.9827C112.947 57.774 110.048 59.6832 108.666 61.2234C107.284 62.7635 101.364 72.7989 95.5089 83.523C82.1995 107.904 81.3352 112.326 88.3208 120.309C95.915 128.988 108.838 129.786 115.756 122.003C116.651 120.996 122.365 111.107 128.453 100.029C136.934 84.5965 139.618 78.8285 139.932 75.3623C141.035 63.177 126.861 52.6808 115.111 56.9827ZM117.077 58.2269C113.161 59.181 108.716 63.619 105.163 70.1221C103.169 73.7718 100.728 78.1299 99.7382 79.8053L97.9387 82.8531L111.746 90.4751C119.34 94.6674 126.022 97.9402 126.594 97.7488C128.539 97.0986 137.457 79.7697 137.904 75.7718C138.612 69.4462 135.046 63.5815 128.456 60.2318C123.272 57.5974 121.174 57.2283 117.077 58.2269ZM95.1628 88.3518C85.3324 104.799 84.1868 109.576 88.309 116.936C90.8007 121.383 97.8601 125.598 102.818 125.598C106.809 125.598 111.672 123.446 114.233 120.546C116.293 118.213 125.436 102.302 125.436 101.051C125.436 100.434 98.6625 85.1451 97.5828 85.1451C97.3065 85.1451 96.2169 86.5876 95.1628 88.3518Z" fill="#A71680"/>
</svg>
