<svg width="221" height="190" viewBox="0 0 221 190" fill="none" xmlns="http://www.w3.org/2000/svg">
<path d="M62.0585 131.552C61.2425 131.552 60.5045 131.366 59.8445 130.994C59.1845 130.61 58.6565 130.064 58.2605 129.356C57.8765 128.636 57.6845 127.76 57.6845 126.728C57.6845 125.696 57.8765 124.826 58.2605 124.118C58.6445 123.398 59.1665 122.852 59.8265 122.48C60.4865 122.108 61.2305 121.922 62.0585 121.922C62.9585 121.922 63.7625 122.126 64.4705 122.534C65.1905 122.93 65.7545 123.494 66.1625 124.226C66.5705 124.946 66.7745 125.78 66.7745 126.728C66.7745 127.688 66.5705 128.528 66.1625 129.248C65.7545 129.968 65.1905 130.532 64.4705 130.94C63.7625 131.348 62.9585 131.552 62.0585 131.552ZM57.1805 134.954V122.012H58.4045V124.856L58.2785 126.746L58.4585 128.654V134.954H57.1805ZM61.9685 130.418C62.6405 130.418 63.2405 130.268 63.7685 129.968C64.2965 129.656 64.7165 129.224 65.0285 128.672C65.3405 128.108 65.4965 127.46 65.4965 126.728C65.4965 125.996 65.3405 125.354 65.0285 124.802C64.7165 124.25 64.2965 123.818 63.7685 123.506C63.2405 123.194 62.6405 123.038 61.9685 123.038C61.2965 123.038 60.6905 123.194 60.1505 123.506C59.6225 123.818 59.2025 124.25 58.8905 124.802C58.5905 125.354 58.4405 125.996 58.4405 126.728C58.4405 127.46 58.5905 128.108 58.8905 128.672C59.2025 129.224 59.6225 129.656 60.1505 129.968C60.6905 130.268 61.2965 130.418 61.9685 130.418ZM75.3357 131.462V129.374L75.2817 129.032V125.54C75.2817 124.736 75.0537 124.118 74.5977 123.686C74.1537 123.254 73.4877 123.038 72.5997 123.038C71.9877 123.038 71.4057 123.14 70.8537 123.344C70.3017 123.548 69.8337 123.818 69.4497 124.154L68.8737 123.2C69.3537 122.792 69.9297 122.48 70.6017 122.264C71.2737 122.036 71.9817 121.922 72.7257 121.922C73.9497 121.922 74.8917 122.228 75.5517 122.84C76.2237 123.44 76.5597 124.358 76.5597 125.594V131.462H75.3357ZM72.0777 131.552C71.3697 131.552 70.7517 131.438 70.2237 131.21C69.7077 130.97 69.3117 130.646 69.0357 130.238C68.7597 129.818 68.6217 129.338 68.6217 128.798C68.6217 128.306 68.7357 127.862 68.9637 127.466C69.2037 127.058 69.5877 126.734 70.1157 126.494C70.6557 126.242 71.3757 126.116 72.2757 126.116H75.5337V127.07H72.3117C71.3997 127.07 70.7637 127.232 70.4037 127.556C70.0557 127.88 69.8817 128.282 69.8817 128.762C69.8817 129.302 70.0917 129.734 70.5117 130.058C70.9317 130.382 71.5197 130.544 72.2757 130.544C72.9957 130.544 73.6137 130.382 74.1297 130.058C74.6577 129.722 75.0417 129.242 75.2817 128.618L75.5697 129.5C75.3297 130.124 74.9097 130.622 74.3097 130.994C73.7217 131.366 72.9777 131.552 72.0777 131.552ZM82.3064 131.57C83.0864 131.57 83.7884 131.45 84.4124 131.21C85.0484 130.97 85.5524 130.64 85.9244 130.22C86.2964 129.788 86.4824 129.29 86.4824 128.726C86.4824 128.006 86.1764 127.436 85.5644 127.016C84.9644 126.596 84.1244 126.386 83.0444 126.386L82.9904 126.728C83.6024 126.728 84.1484 126.632 84.6284 126.44C85.1084 126.248 85.4924 125.978 85.7804 125.63C86.0684 125.282 86.2124 124.874 86.2124 124.406C86.2124 123.878 86.0324 123.428 85.6724 123.056C85.3124 122.672 84.8264 122.378 84.2144 122.174C83.6144 121.97 82.9364 121.88 82.1804 121.904C81.6284 121.904 81.0764 121.982 80.5244 122.138C79.9844 122.282 79.4384 122.498 78.8864 122.786L79.2464 123.776C79.7384 123.524 80.2364 123.338 80.7404 123.218C81.2444 123.086 81.7304 123.014 82.1984 123.002C82.7144 123.002 83.1764 123.062 83.5844 123.182C83.9924 123.302 84.3104 123.482 84.5384 123.722C84.7784 123.962 84.8984 124.25 84.8984 124.586C84.8984 124.898 84.7964 125.168 84.5924 125.396C84.4004 125.624 84.1244 125.798 83.7644 125.918C83.4044 126.038 82.9904 126.098 82.5224 126.098H80.9924V127.034H82.6124C83.4044 127.034 84.0284 127.178 84.4844 127.466C84.9404 127.742 85.1684 128.132 85.1684 128.636C85.1684 128.984 85.0484 129.296 84.8084 129.572C84.5684 129.848 84.2324 130.064 83.8004 130.22C83.3684 130.376 82.8584 130.46 82.2704 130.472C81.6824 130.472 81.0884 130.388 80.4884 130.22C79.8884 130.04 79.3604 129.782 78.9044 129.446L78.4904 130.4C79.0064 130.796 79.6004 131.09 80.2724 131.282C80.9444 131.474 81.6224 131.57 82.3064 131.57ZM95.2517 131.462V129.374L95.1977 129.032V125.54C95.1977 124.736 94.9697 124.118 94.5137 123.686C94.0697 123.254 93.4037 123.038 92.5157 123.038C91.9037 123.038 91.3217 123.14 90.7697 123.344C90.2177 123.548 89.7497 123.818 89.3657 124.154L88.7897 123.2C89.2697 122.792 89.8457 122.48 90.5177 122.264C91.1897 122.036 91.8977 121.922 92.6417 121.922C93.8657 121.922 94.8077 122.228 95.4677 122.84C96.1397 123.44 96.4757 124.358 96.4757 125.594V131.462H95.2517ZM91.9937 131.552C91.2857 131.552 90.6677 131.438 90.1397 131.21C89.6237 130.97 89.2277 130.646 88.9517 130.238C88.6757 129.818 88.5377 129.338 88.5377 128.798C88.5377 128.306 88.6517 127.862 88.8797 127.466C89.1197 127.058 89.5037 126.734 90.0317 126.494C90.5717 126.242 91.2917 126.116 92.1917 126.116H95.4497V127.07H92.2277C91.3157 127.07 90.6797 127.232 90.3197 127.556C89.9717 127.88 89.7977 128.282 89.7977 128.762C89.7977 129.302 90.0077 129.734 90.4277 130.058C90.8477 130.382 91.4357 130.544 92.1917 130.544C92.9117 130.544 93.5297 130.382 94.0457 130.058C94.5737 129.722 94.9577 129.242 95.1977 128.618L95.4857 129.5C95.2457 130.124 94.8257 130.622 94.2257 130.994C93.6377 131.366 92.8937 131.552 91.9937 131.552ZM104.589 131.462V122.012H108.765C109.833 122.012 110.673 122.216 111.285 122.624C111.909 123.032 112.221 123.632 112.221 124.424C112.221 125.192 111.927 125.786 111.339 126.206C110.751 126.614 109.977 126.818 109.017 126.818L109.269 126.44C110.397 126.44 111.225 126.65 111.753 127.07C112.281 127.49 112.545 128.096 112.545 128.888C112.545 129.704 112.245 130.34 111.645 130.796C111.057 131.24 110.139 131.462 108.891 131.462H104.589ZM105.831 130.454H108.837C109.641 130.454 110.247 130.328 110.655 130.076C111.075 129.812 111.285 129.392 111.285 128.816C111.285 128.24 111.099 127.82 110.727 127.556C110.355 127.292 109.767 127.16 108.963 127.16H105.831V130.454ZM105.831 126.206H108.675C109.407 126.206 109.965 126.068 110.349 125.792C110.745 125.516 110.943 125.114 110.943 124.586C110.943 124.058 110.745 123.662 110.349 123.398C109.965 123.134 109.407 123.002 108.675 123.002H105.831V126.206ZM126.731 130.85V123.128H122.177L122.069 125.234C122.045 125.87 122.003 126.494 121.943 127.106C121.895 127.718 121.805 128.282 121.673 128.798C121.553 129.302 121.379 129.716 121.151 130.04C120.923 130.352 120.629 130.532 120.269 130.58L118.991 130.346C119.363 130.358 119.669 130.226 119.909 129.95C120.149 129.662 120.335 129.272 120.467 128.78C120.599 128.288 120.695 127.73 120.755 127.106C120.815 126.47 120.863 125.822 120.899 125.162L121.025 122.012H128.009V130.85H126.731ZM118.595 133.748V130.346H129.485V133.748H128.279V131.462H119.801V133.748H118.595ZM136.025 131.552C135.041 131.552 134.177 131.348 133.433 130.94C132.689 130.52 132.107 129.95 131.687 129.23C131.267 128.498 131.057 127.664 131.057 126.728C131.057 125.792 131.255 124.964 131.651 124.244C132.059 123.524 132.611 122.96 133.307 122.552C134.015 122.132 134.807 121.922 135.683 121.922C136.571 121.922 137.357 122.126 138.041 122.534C138.737 122.93 139.283 123.494 139.679 124.226C140.075 124.946 140.273 125.78 140.273 126.728C140.273 126.788 140.267 126.854 140.255 126.926C140.255 126.986 140.255 127.052 140.255 127.124H132.029V126.17H139.571L139.067 126.548C139.067 125.864 138.917 125.258 138.617 124.73C138.329 124.19 137.933 123.77 137.429 123.47C136.925 123.17 136.343 123.02 135.683 123.02C135.035 123.02 134.453 123.17 133.937 123.47C133.421 123.77 133.019 124.19 132.731 124.73C132.443 125.27 132.299 125.888 132.299 126.584V126.782C132.299 127.502 132.455 128.138 132.767 128.69C133.091 129.23 133.535 129.656 134.099 129.968C134.675 130.268 135.329 130.418 136.061 130.418C136.637 130.418 137.171 130.316 137.663 130.112C138.167 129.908 138.599 129.596 138.959 129.176L139.679 130.004C139.259 130.508 138.731 130.892 138.095 131.156C137.471 131.42 136.781 131.552 136.025 131.552ZM143.102 131.462V122.012H144.38V126.188H150.338V122.012H151.616V131.462H150.338V127.286H144.38V131.462H143.102ZM159.317 125.342C160.505 125.354 161.405 125.618 162.017 126.134C162.641 126.65 162.953 127.394 162.953 128.366C162.953 129.374 162.617 130.148 161.945 130.688C161.285 131.228 160.325 131.492 159.065 131.48L155.249 131.462V122.012H156.527V125.306L159.317 125.342ZM158.993 130.508C159.869 130.52 160.529 130.346 160.973 129.986C161.429 129.614 161.657 129.074 161.657 128.366C161.657 127.658 161.435 127.142 160.991 126.818C160.547 126.482 159.881 126.308 158.993 126.296L156.527 126.26V130.472L158.993 130.508Z" fill="#A71680"/>
<path d="M0.581391 94.6851L57.4148 0.899423L167.077 0.998074L219.896 94.8648L163.062 188.65L53.4002 188.552L0.581391 94.6851Z" stroke="#A71680"/>
<path d="M64.2214 108.589V107.539L85.4314 86.0491C87.5314 83.9491 89.1181 82.1058 90.1914 80.5191C91.2648 78.9324 91.9881 77.4624 92.3614 76.1091C92.7348 74.7091 92.9214 73.3324 92.9214 71.9791C92.9214 68.5258 91.7548 65.7958 89.4214 63.7891C87.0881 61.7358 83.7048 60.7091 79.2714 60.7091C75.9114 60.7091 72.9948 61.1991 70.5214 62.1791C68.0481 63.1591 65.9248 64.6524 64.1514 66.6591L63.1714 65.6791C64.9914 63.6258 67.2314 62.0624 69.8914 60.9891C72.5981 59.9158 75.7248 59.3791 79.2714 59.3791C82.3514 59.3791 85.0114 59.8924 87.2514 60.9191C89.5381 61.8991 91.2881 63.3224 92.5014 65.1891C93.7148 67.0558 94.3214 69.2958 94.3214 71.9091C94.3214 73.4491 94.0881 74.9658 93.6214 76.4591C93.2014 77.9524 92.4314 79.5391 91.3114 81.2191C90.1914 82.8991 88.5581 84.8124 86.4114 86.9591L65.8314 107.819L64.9914 107.259H96.9814V108.589H64.2214ZM103.906 90.7391V89.4091H121.406V90.7391H103.906ZM142.711 108.799C139.024 108.799 135.664 108.146 132.631 106.839C129.644 105.532 127.404 103.876 125.911 101.869L126.821 100.959C128.174 102.779 130.251 104.319 133.051 105.579C135.897 106.839 139.117 107.469 142.711 107.469C147.564 107.469 151.227 106.349 153.701 104.109C156.221 101.869 157.481 98.8824 157.481 95.1491C157.481 91.4158 156.197 88.4291 153.631 86.1891C151.111 83.9491 147.167 82.8291 141.801 82.8291H139.281V81.7791L155.521 60.4291L155.661 60.9191H127.451V59.5891H157.061V60.6391L140.821 81.9891L140.681 81.4991H141.731C147.517 81.4991 151.811 82.7591 154.611 85.2791C157.457 87.7991 158.881 91.0891 158.881 95.1491C158.881 97.8558 158.251 100.236 156.991 102.289C155.777 104.342 153.957 105.952 151.531 107.119C149.151 108.239 146.211 108.799 142.711 108.799Z" fill="#A71680"/>
</svg>
