<svg width="221" height="189" viewBox="0 0 221 189" fill="none" xmlns="http://www.w3.org/2000/svg">
<path d="M107.919 36.0498V72.9324" stroke="#A71680" stroke-width="1.3" stroke-linecap="round" stroke-linejoin="round"/>
<path d="M127.228 54.491L108.547 75.3943" stroke="#A71680" stroke-width="1.3" stroke-linecap="round" stroke-linejoin="round"/>
<circle cx="107.918" cy="75.3943" r="3.46826" fill="#A71680"/>
<path d="M100.982 166.661H155.8" stroke="#A71680" stroke-width="1.3" stroke-linecap="round" stroke-linejoin="round"/>
<path fill-rule="evenodd" clip-rule="evenodd" d="M147.389 105.53C154.036 97.1085 158.003 86.474 158.003 74.9131C158.003 47.5994 135.861 25.4572 108.547 25.4572C81.2332 25.4572 59.091 47.5994 59.091 74.9131C59.091 102.111 81.0462 124.182 108.201 124.368V125.668C80.3283 125.482 57.791 102.829 57.791 74.9131C57.791 46.8814 80.5152 24.1572 108.547 24.1572C136.579 24.1572 159.303 46.8814 159.303 74.9131C159.303 86.9837 155.089 98.0701 148.053 106.782V105.53H147.389Z" fill="#A71680"/>
<path d="M111.609 158.879L106.143 103.432H148.053L142.847 158.879H111.609Z" stroke="#A71680" stroke-width="1.3" stroke-linecap="round" stroke-linejoin="round"/>
<path d="M147.012 113.324H107.444" stroke="#A71680" stroke-width="1.3" stroke-linecap="round" stroke-linejoin="round"/>
<path d="M116.295 137.533V150.549H126.187" stroke="#A71680" stroke-width="1.3" stroke-linecap="round" stroke-linejoin="round"/>
<path d="M1.01355 94.3196L57.847 0.533945L167.509 0.632596L220.328 94.4993L163.494 188.285L53.8323 188.186L1.01355 94.3196Z" stroke="#A71680"/>
</svg>
