<svg width="222" height="190" viewBox="0 0 222 190" fill="none" xmlns="http://www.w3.org/2000/svg">
<path d="M1.22107 94.6851L58.0545 0.899423L167.717 0.998074L220.535 94.8648L163.702 188.65L54.0399 188.552L1.22107 94.6851Z" stroke="#A71680"/>
<path d="M126.671 107.259V108.589H93.9114V107.539L115.121 86.0491C118.061 83.0624 120.045 80.5424 121.071 78.4891C122.098 76.3891 122.611 74.2191 122.611 71.9791C122.611 68.4791 121.421 65.7258 119.041 63.7191C116.708 61.7124 113.348 60.7091 108.961 60.7091C105.601 60.7091 102.685 61.1991 100.211 62.1791C97.7381 63.1591 95.6147 64.6524 93.8414 66.6591L92.8614 65.6791C96.6414 61.4791 102.008 59.3791 108.961 59.3791C113.581 59.3791 117.245 60.4991 119.951 62.7391C122.658 64.9791 124.011 68.0358 124.011 71.9091C124.011 74.3824 123.451 76.7391 122.331 78.9791C121.211 81.2191 119.135 83.8791 116.101 86.9591L96.0814 107.259H126.671Z" fill="#A71680"/>
<path d="M63.4687 121.922C64.3567 121.922 65.1607 122.126 65.8807 122.534C66.6007 122.93 67.1647 123.494 67.5727 124.226C67.9807 124.958 68.1847 125.792 68.1847 126.728C68.1847 127.676 67.9807 128.516 67.5727 129.248C67.1647 129.98 66.6007 130.55 65.8807 130.958C65.1727 131.354 64.3687 131.552 63.4687 131.552C62.7007 131.552 62.0047 131.396 61.3807 131.084C60.7687 130.76 60.2647 130.292 59.8687 129.68V134.954H58.5907V121.994H59.8147V123.866C60.1987 123.242 60.7027 122.762 61.3267 122.426C61.9627 122.09 62.6767 121.922 63.4687 121.922ZM63.3787 130.418C64.0387 130.418 64.6387 130.268 65.1787 129.968C65.7187 129.656 66.1387 129.218 66.4387 128.654C66.7507 128.09 66.9067 127.448 66.9067 126.728C66.9067 126.008 66.7507 125.372 66.4387 124.82C66.1387 124.256 65.7187 123.818 65.1787 123.506C64.6387 123.194 64.0387 123.038 63.3787 123.038C62.7067 123.038 62.1007 123.194 61.5607 123.506C61.0327 123.818 60.6127 124.256 60.3007 124.82C60.0007 125.372 59.8507 126.008 59.8507 126.728C59.8507 127.448 60.0007 128.09 60.3007 128.654C60.6127 129.218 61.0327 129.656 61.5607 129.968C62.1007 130.268 62.7067 130.418 63.3787 130.418ZM74.1358 121.922C75.3718 121.922 76.3198 122.234 76.9798 122.858C77.6398 123.47 77.9698 124.382 77.9698 125.594V131.462H76.7458V129.986C76.4578 130.478 76.0318 130.862 75.4678 131.138C74.9158 131.414 74.2558 131.552 73.4878 131.552C72.4318 131.552 71.5918 131.3 70.9678 130.796C70.3438 130.292 70.0318 129.626 70.0318 128.798C70.0318 127.994 70.3198 127.346 70.8958 126.854C71.4838 126.362 72.4138 126.116 73.6858 126.116H76.6918V125.54C76.6918 124.724 76.4638 124.106 76.0078 123.686C75.5518 123.254 74.8858 123.038 74.0098 123.038C73.4098 123.038 72.8338 123.14 72.2818 123.344C71.7298 123.536 71.2558 123.806 70.8598 124.154L70.2838 123.2C70.7638 122.792 71.3398 122.48 72.0118 122.264C72.6838 122.036 73.3918 121.922 74.1358 121.922ZM73.6858 130.544C74.4058 130.544 75.0238 130.382 75.5398 130.058C76.0558 129.722 76.4398 129.242 76.6918 128.618V127.07H73.7218C72.1018 127.07 71.2918 127.634 71.2918 128.762C71.2918 129.314 71.5018 129.752 71.9218 130.076C72.3418 130.388 72.9298 130.544 73.6858 130.544ZM85.7866 126.53C86.4586 126.686 86.9746 126.956 87.3346 127.34C87.7066 127.724 87.8926 128.192 87.8926 128.744C87.8926 129.296 87.7006 129.788 87.3166 130.22C86.9446 130.652 86.4346 130.988 85.7866 131.228C85.1386 131.456 84.4246 131.57 83.6446 131.57C82.9606 131.57 82.2886 131.474 81.6286 131.282C80.9686 131.078 80.3926 130.784 79.9006 130.4L80.3326 129.446C80.7646 129.77 81.2686 130.022 81.8446 130.202C82.4206 130.382 83.0026 130.472 83.5906 130.472C84.4666 130.472 85.1806 130.31 85.7326 129.986C86.2966 129.65 86.5786 129.2 86.5786 128.636C86.5786 128.132 86.3506 127.742 85.8946 127.466C85.4386 127.178 84.8146 127.034 84.0226 127.034H82.4026V126.098H83.9506C84.6586 126.098 85.2286 125.966 85.6606 125.702C86.0926 125.426 86.3086 125.06 86.3086 124.604C86.3086 124.1 86.0626 123.704 85.5706 123.416C85.0906 123.128 84.4606 122.984 83.6806 122.984C82.6606 122.984 81.6526 123.242 80.6566 123.758L80.2966 122.768C81.4246 122.18 82.5946 121.886 83.8066 121.886C84.5266 121.886 85.1746 121.994 85.7506 122.21C86.3386 122.414 86.7946 122.708 87.1186 123.092C87.4546 123.476 87.6226 123.92 87.6226 124.424C87.6226 124.904 87.4546 125.33 87.1186 125.702C86.7946 126.074 86.3506 126.35 85.7866 126.53ZM94.0518 121.922C95.2878 121.922 96.2358 122.234 96.8958 122.858C97.5558 123.47 97.8858 124.382 97.8858 125.594V131.462H96.6618V129.986C96.3738 130.478 95.9478 130.862 95.3838 131.138C94.8318 131.414 94.1718 131.552 93.4038 131.552C92.3478 131.552 91.5078 131.3 90.8838 130.796C90.2598 130.292 89.9478 129.626 89.9478 128.798C89.9478 127.994 90.2358 127.346 90.8118 126.854C91.3998 126.362 92.3298 126.116 93.6018 126.116H96.6078V125.54C96.6078 124.724 96.3798 124.106 95.9238 123.686C95.4678 123.254 94.8018 123.038 93.9258 123.038C93.3258 123.038 92.7498 123.14 92.1978 123.344C91.6458 123.536 91.1718 123.806 90.7758 124.154L90.1998 123.2C90.6798 122.792 91.2558 122.48 91.9278 122.264C92.5998 122.036 93.3078 121.922 94.0518 121.922ZM93.6018 130.544C94.3218 130.544 94.9398 130.382 95.4558 130.058C95.9718 129.722 96.3558 129.242 96.6078 128.618V127.07H93.6378C92.0178 127.07 91.2078 127.634 91.2078 128.762C91.2078 129.314 91.4178 129.752 91.8378 130.076C92.2578 130.388 92.8458 130.544 93.6018 130.544ZM112.029 126.566C113.313 126.866 113.955 127.64 113.955 128.888C113.955 129.716 113.649 130.352 113.037 130.796C112.425 131.24 111.513 131.462 110.301 131.462H105.999V121.994H110.175C111.255 121.994 112.101 122.204 112.713 122.624C113.325 123.044 113.631 123.644 113.631 124.424C113.631 124.94 113.487 125.384 113.199 125.756C112.923 126.116 112.533 126.386 112.029 126.566ZM107.241 126.206H110.085C110.817 126.206 111.375 126.068 111.759 125.792C112.155 125.516 112.353 125.114 112.353 124.586C112.353 124.058 112.155 123.662 111.759 123.398C111.375 123.134 110.817 123.002 110.085 123.002H107.241V126.206ZM110.247 130.454C111.063 130.454 111.675 130.322 112.083 130.058C112.491 129.794 112.695 129.38 112.695 128.816C112.695 128.252 112.509 127.838 112.137 127.574C111.765 127.298 111.177 127.16 110.373 127.16H107.241V130.454H110.247ZM130.895 130.346V133.748H129.689V131.462H121.211V133.748H120.005V130.346H120.545C121.181 130.31 121.613 129.842 121.841 128.942C122.069 128.042 122.225 126.782 122.309 125.162L122.435 121.994H129.419V130.346H130.895ZM123.479 125.234C123.419 126.578 123.305 127.688 123.137 128.564C122.969 129.428 122.669 130.022 122.237 130.346H128.141V123.128H123.587L123.479 125.234ZM141.666 127.124H133.746C133.818 128.108 134.196 128.906 134.88 129.518C135.564 130.118 136.428 130.418 137.472 130.418C138.06 130.418 138.6 130.316 139.092 130.112C139.584 129.896 140.01 129.584 140.37 129.176L141.09 130.004C140.67 130.508 140.142 130.892 139.506 131.156C138.882 131.42 138.192 131.552 137.436 131.552C136.464 131.552 135.6 131.348 134.844 130.94C134.1 130.52 133.518 129.944 133.098 129.212C132.678 128.48 132.468 127.652 132.468 126.728C132.468 125.804 132.666 124.976 133.062 124.244C133.47 123.512 134.022 122.942 134.718 122.534C135.426 122.126 136.218 121.922 137.094 121.922C137.97 121.922 138.756 122.126 139.452 122.534C140.148 122.942 140.694 123.512 141.09 124.244C141.486 124.964 141.684 125.792 141.684 126.728L141.666 127.124ZM137.094 123.02C136.182 123.02 135.414 123.314 134.79 123.902C134.178 124.478 133.83 125.234 133.746 126.17H140.46C140.376 125.234 140.022 124.478 139.398 123.902C138.786 123.314 138.018 123.02 137.094 123.02ZM144.513 121.994H145.791V126.188H151.749V121.994H153.027V131.462H151.749V127.286H145.791V131.462H144.513V121.994ZM160.727 125.342C161.915 125.354 162.815 125.618 163.427 126.134C164.051 126.65 164.363 127.394 164.363 128.366C164.363 129.374 164.027 130.148 163.355 130.688C162.695 131.228 161.735 131.492 160.475 131.48L156.659 131.462V121.994H157.937V125.306L160.727 125.342ZM160.403 130.508C161.279 130.52 161.939 130.346 162.383 129.986C162.839 129.614 163.067 129.074 163.067 128.366C163.067 127.67 162.845 127.154 162.401 126.818C161.957 126.482 161.291 126.308 160.403 126.296L157.937 126.26V130.472L160.403 130.508Z" fill="#A71680"/>
</svg>
