<svg width="203" height="176" viewBox="0 0 203 176" fill="none" xmlns="http://www.w3.org/2000/svg">
<path d="M169.015 30.6919C169.015 30.6919 153.611 53.798 142.539 57.1676C131.467 60.2966 122.803 67.0358 116.304 73.7751C109.805 80.5144 105.714 85.0875 102.585 87.2537C99.4559 89.4199 89.8283 95.1964 91.9945 98.8067C93.92 102.176 97.5304 101.695 101.141 99.7695C104.029 98.3253 117.989 84.3654 122.803 84.3654C127.616 84.3654 116.304 99.7695 116.304 99.7695L100.178 127.93C100.178 127.93 97.771 132.262 101.141 134.429C104.51 136.595 107.639 131.3 109.083 128.893C110.528 126.245 124.969 101.214 125.932 99.5288C126.894 97.6033 128.82 98.3253 128.098 99.7695C126.894 102.898 104.27 141.168 104.27 141.168C104.27 141.168 101.381 145.5 105.473 147.426C109.565 149.833 112.453 143.575 113.656 141.89C114.86 140.205 132.189 109.156 133.634 106.509C135.078 103.861 136.763 105.305 136.04 106.99C135.318 108.675 117.267 140.446 116.063 142.853C115.341 145.019 114.86 147.185 117.748 148.148C120.396 148.87 124.487 144.056 129.301 135.151C133.874 126.245 142.78 111.082 143.502 109.397C144.224 107.712 146.149 108.916 145.187 110.6C144.465 112.285 130.986 137.317 130.023 139.483C128.338 143.575 132.189 145.741 135.078 143.334C138.207 141.409 141.817 135.151 142.298 133.947C142.78 132.744 158.665 106.027 158.665 106.027C158.665 106.027 169.737 89.6605 171.662 83.6433C173.588 77.8668 174.31 76.182 174.791 75.4599C175.273 74.7379 186.344 63.1848 186.344 63.1848" stroke="#A62281" stroke-miterlimit="10"/>
<path d="M158.184 44.4121C158.184 44.4121 111.896 41.2657 93.144 69.5832C74.3915 97.9006 51.3662 174.624 51.3662 174.624" stroke="#A62281" stroke-miterlimit="10"/>
<path d="M23.6392 78.3477L72.0437 114.451" stroke="#A62281" stroke-miterlimit="10"/>
<path d="M23.1582 60.7771C23.1582 60.7771 128.098 25.1552 164.924 22.989" stroke="#A62281" stroke-miterlimit="10"/>
<path d="M151.686 0.605713H51.0778L1.01465 87.7349L51.0778 174.864H151.686L201.989 87.7349L151.686 0.605713Z" stroke="#A62281" stroke-miterlimit="10"/>
<path d="M182.734 55.2427C182.734 55.2427 187.067 108.194 138.448 174.383L151.686 174.624L201.989 87.4949L182.734 55.2427Z" fill="#A62281"/>
<path d="M22.1952 49.946L29.4159 136.594L1.01465 87.7341L22.1952 49.946Z" fill="#A62281"/>
<path d="M49.393 4.21582C50.3558 4.93789 50.3558 6.86339 50.3558 8.7889C50.3558 11.4365 49.393 13.6027 47.9489 13.6027C46.9862 13.6027 46.0234 12.1585 45.7827 10.4737" stroke="#A62281" stroke-miterlimit="10"/>
<path d="M131.708 143.574C127.857 153.924 117.989 161.385 106.195 161.385C91.2727 161.385 78.9976 149.11 78.9976 134.187C78.9976 126.485 82.1265 119.746 87.181 114.691" stroke="#A62281" stroke-miterlimit="10"/>
<path d="M88.1437 119.506L86.9403 114.451L82.3672 114.692" stroke="#A62281" stroke-miterlimit="10"/>
</svg>
