<svg width="203" height="176" viewBox="0 0 203 176" fill="none" xmlns="http://www.w3.org/2000/svg">
<path d="M157.971 44.412C157.971 44.412 111.037 41.2831 92.0226 69.4436C73.0082 97.6042 50.606 174.616 50.606 174.616" stroke="#A62281" stroke-miterlimit="10"/>
<path d="M23.4268 78.3477L70.7592 113.709" stroke="#A62281" stroke-miterlimit="10"/>
<path d="M20.4448 61.0916C20.4448 61.0916 127.885 25.1557 164.71 22.9895" stroke="#A62281" stroke-miterlimit="10"/>
<path d="M182.522 55.2427C182.522 55.2427 186.854 108.194 138.235 174.383L151.473 174.624L201.777 87.4949L182.522 55.2427Z" fill="#A62281"/>
<path d="M151.473 0.605713H50.8649L0.801758 87.7349L50.8649 174.864H151.473L201.777 87.7349L151.473 0.605713Z" stroke="#A62281" stroke-miterlimit="10"/>
<path d="M21.9823 49.947L29.203 136.595L0.801758 87.7351L21.9823 49.947Z" fill="#A62281"/>
<path d="M49.1801 4.21582C50.1429 4.93789 50.1429 6.86339 50.1429 8.7889C50.1429 11.4365 49.1802 13.6027 47.736 13.6027C46.7733 13.6027 45.8105 12.1585 45.5698 10.4737" stroke="#A62281" stroke-miterlimit="10"/>
<path d="M78.3037 94.9563C78.3037 94.9563 152.436 96.6411 171.45 119.988" stroke="#A62281" stroke-miterlimit="10"/>
<path d="M72.7676 108.916C72.7676 108.916 148.344 121.432 160.86 141.89" stroke="#A62281" stroke-miterlimit="10"/>
<path d="M66.9912 123.839C66.9912 123.839 142.808 138.521 153.158 155.61" stroke="#A62281" stroke-miterlimit="10"/>
<path d="M64.5596 130.247C64.5596 130.247 135.008 147.987 145.696 167.884" stroke="#A62281" stroke-miterlimit="10"/>
</svg>
