<svg width="202" height="176" viewBox="0 0 202 176" fill="none" xmlns="http://www.w3.org/2000/svg">
<path d="M151.063 0.624512H50.4548L0.391602 87.7537L50.4548 174.883H151.063L201.366 87.7537L151.063 0.624512Z" stroke="#A62281" stroke-width="0.2835" stroke-miterlimit="10"/>
<path d="M82.707 83.1801C129.16 83.1801 169.355 94.7331 187.647 111.341L201.607 87.2718L151.063 0.383301H50.6955L0.391602 87.5125L5.20537 95.9366C25.6639 87.9939 52.8617 83.1801 82.707 83.1801Z" fill="#A62281"/>
<path d="M78.1342 138.092C84.9136 138.092 90.4093 132.596 90.4093 125.817C90.4093 119.037 84.9136 113.542 78.1342 113.542C71.3549 113.542 65.8591 119.037 65.8591 125.817C65.8591 132.596 71.3549 138.092 78.1342 138.092Z" stroke="#A71680" stroke-miterlimit="10"/>
<path d="M78.3745 103.434V109.451" stroke="#A71680" stroke-miterlimit="10"/>
<path d="M78.3745 142.426V148.443" stroke="#A71680" stroke-miterlimit="10"/>
<path d="M55.75 126.058H62.0079" stroke="#A71680" stroke-miterlimit="10"/>
<path d="M94.7415 126.058H100.999" stroke="#A71680" stroke-miterlimit="10"/>
<path d="M62.4895 141.943L66.8219 137.61" stroke="#A71680" stroke-miterlimit="10"/>
<path d="M89.928 114.264L94.2604 109.931" stroke="#A71680" stroke-miterlimit="10"/>
<path d="M94.2604 141.943L89.928 137.61" stroke="#A71680" stroke-miterlimit="10"/>
<path d="M66.8219 114.264L62.4895 109.931" stroke="#A71680" stroke-miterlimit="10"/>
<path d="M144.911 58.3891C134.321 58.3891 125.897 49.965 125.897 39.3747C125.897 34.561 127.582 30.4692 130.47 27.0996C122.286 29.2658 116.029 36.7271 116.029 45.6326C116.029 56.2229 124.453 64.647 135.043 64.647C140.819 64.647 146.115 61.9994 149.484 57.9077C148.04 58.1484 146.596 58.3891 144.911 58.3891Z" fill="white"/>
</svg>
