<svg width="203" height="176" viewBox="0 0 203 176" fill="none" xmlns="http://www.w3.org/2000/svg">
<path d="M169.255 30.6914C169.255 30.6914 153.85 53.7975 142.779 57.1671C131.707 60.2961 123.042 67.0354 116.544 73.7746C110.045 80.5139 105.954 85.087 102.825 87.2532C99.6956 89.4194 90.0681 95.1959 92.2343 98.8062C94.1598 102.176 97.7701 101.694 101.38 99.769C104.269 98.3248 118.229 84.3649 123.042 84.3649C127.856 84.3649 116.544 99.769 116.544 99.769L100.418 127.93C100.418 127.93 98.0108 132.262 101.38 134.428C104.75 136.594 107.879 131.299 109.323 128.892C110.767 126.245 125.209 101.213 126.171 99.5283C127.134 97.6028 129.06 98.3248 128.338 99.769C127.134 102.898 104.509 141.167 104.509 141.167C104.509 141.167 101.621 145.5 105.713 147.425C109.805 149.832 112.693 143.574 113.896 141.889C115.1 140.205 132.429 109.156 133.873 106.508C135.317 103.861 137.002 105.305 136.28 106.99C135.558 108.674 117.507 140.445 116.303 142.852C115.581 145.018 115.1 147.185 117.988 148.147C120.635 148.869 124.727 144.056 129.541 135.15C134.114 126.245 143.02 111.081 143.742 109.397C144.464 107.712 146.389 108.915 145.426 110.6C144.704 112.285 131.226 137.316 130.263 139.483C128.578 143.574 132.429 145.74 135.317 143.334C138.446 141.408 142.057 135.15 142.538 133.947C143.02 132.743 158.905 106.027 158.905 106.027C158.905 106.027 169.977 89.6601 171.902 83.6428C173.828 77.8663 174.55 76.1815 175.031 75.4594C175.512 74.7374 186.584 63.1843 186.584 63.1843" stroke="#A62281" stroke-miterlimit="10"/>
<path d="M158.424 44.412C158.424 44.412 111.49 41.2831 92.4752 69.4436C73.4609 97.6042 51.1938 174.589 51.1938 174.589" stroke="#A62281" stroke-miterlimit="10"/>
<path d="M23.8789 78.3477L71.0538 113.488" stroke="#A62281" stroke-miterlimit="10"/>
<path d="M23.3979 60.7776C23.3979 60.7776 128.338 25.1557 165.163 22.9895" stroke="#A62281" stroke-miterlimit="10"/>
<path d="M104.991 119.025C104.991 119.025 99.4556 120.951 98.4928 118.544C97.53 116.378 93.4384 108.675 90.7908 112.767C88.1432 116.859 76.5902 142.613 76.5902 142.613C76.5902 142.613 74.1833 151.999 85.2549 158.017C96.3266 164.034 103.307 148.63 104.269 146.945" stroke="#A62281" stroke-miterlimit="10"/>
<path d="M151.925 0.605713H51.3176L1.25439 87.7349L51.3176 174.864H151.925L202.229 87.7349L151.925 0.605713Z" stroke="#A62281" stroke-miterlimit="10"/>
<path d="M182.974 55.2427C182.974 55.2427 187.307 108.194 138.688 174.383L151.925 174.624L202.229 87.4949L182.974 55.2427Z" fill="#A62281"/>
<path d="M22.435 49.947L29.6556 136.595L1.25439 87.7351L22.435 49.947Z" fill="#A62281"/>
<path d="M49.6328 4.21582C50.5955 4.93789 50.5955 6.86339 50.5955 8.7889C50.5955 11.4365 49.6328 13.6027 48.1887 13.6027C47.2259 13.6027 46.2631 12.1585 46.0225 10.4737" stroke="#A62281" stroke-miterlimit="10"/>
<path d="M83.0884 139.484L85.9766 152.24" stroke="#A62281" stroke-miterlimit="10"/>
<path d="M87.1802 141.168L88.865 150.314" stroke="#A62281" stroke-miterlimit="10"/>
<path d="M91.0312 143.334L92.2347 149.592" stroke="#A62281" stroke-miterlimit="10"/>
</svg>
